<mxfile host="app.diagrams.net" modified="2020-08-07T14:26:03.089Z" agent="5.0 (Windows NT 10.0; Win64; x64) AppleWebKit/537.36 (KHTML, like Gecko) Chrome/84.0.4147.105 Safari/537.36" etag="tCtzPD3X8eSW02Jb-Xm-" version="13.6.0" type="github">
  <diagram id="QuiynFQBWSvwr-dOyDzd" name="Page-1">
    <mxGraphModel dx="1888" dy="1599" grid="0" gridSize="10" guides="1" tooltips="1" connect="1" arrows="1" fold="1" page="1" pageScale="1" pageWidth="850" pageHeight="1100" math="0" shadow="0">
      <root>
        <mxCell id="0" />
        <mxCell id="1" parent="0" />
        <mxCell id="P-y4f1cWEfWgXK431O_4-2" value="" style="ellipse;whiteSpace=wrap;html=1;aspect=fixed;fillColor=#D5E8D4;strokeColor=#67AB9F;" vertex="1" parent="1">
          <mxGeometry x="320" y="170" width="190" height="190" as="geometry" />
        </mxCell>
        <mxCell id="P-y4f1cWEfWgXK431O_4-3" value="" style="ellipse;whiteSpace=wrap;html=1;aspect=fixed;strokeColor=#CC0066;fillColor=#FFCCE6;" vertex="1" parent="1">
          <mxGeometry x="560" y="90" width="150" height="150" as="geometry" />
        </mxCell>
        <mxCell id="P-y4f1cWEfWgXK431O_4-4" value="" style="ellipse;whiteSpace=wrap;html=1;aspect=fixed;" vertex="1" parent="1">
          <mxGeometry x="335" y="400" width="160" height="160" as="geometry" />
        </mxCell>
        <mxCell id="P-y4f1cWEfWgXK431O_4-5" value="" style="ellipse;whiteSpace=wrap;html=1;aspect=fixed;fillColor=#FFFF99;strokeColor=#CCCC00;" vertex="1" parent="1">
          <mxGeometry x="120" y="90" width="150" height="150" as="geometry" />
        </mxCell>
        <mxCell id="P-y4f1cWEfWgXK431O_4-6" value="UnSupervised&lt;br style=&quot;font-size: 16px;&quot;&gt;Learning" style="text;html=1;strokeColor=none;fillColor=none;align=center;verticalAlign=middle;whiteSpace=wrap;rounded=0;fontSize=16;fontColor=#999900;" vertex="1" parent="1">
          <mxGeometry x="150" y="140" width="100" height="50" as="geometry" />
        </mxCell>
        <mxCell id="P-y4f1cWEfWgXK431O_4-7" value="Machine Learning" style="text;html=1;strokeColor=none;fillColor=none;align=center;verticalAlign=middle;whiteSpace=wrap;rounded=0;fontSize=20;fontColor=#67AB9F;" vertex="1" parent="1">
          <mxGeometry x="380" y="235" width="75" height="60" as="geometry" />
        </mxCell>
        <mxCell id="P-y4f1cWEfWgXK431O_4-9" value="Supervised&lt;br&gt;Learning" style="text;strokeColor=none;fillColor=none;align=center;verticalAlign=middle;rounded=0;sketch=0;fontSize=16;labelBorderColor=none;whiteSpace=wrap;html=1;fontColor=#FF0080;" vertex="1" parent="1">
          <mxGeometry x="590" y="150" width="100" height="50" as="geometry" />
        </mxCell>
        <mxCell id="P-y4f1cWEfWgXK431O_4-10" value="Reinforcement&lt;br style=&quot;font-size: 16px;&quot;&gt;Learning" style="text;html=1;strokeColor=none;fillColor=none;align=center;verticalAlign=middle;whiteSpace=wrap;rounded=0;fontSize=16;" vertex="1" parent="1">
          <mxGeometry x="367.5" y="455" width="100" height="50" as="geometry" />
        </mxCell>
        <mxCell id="P-y4f1cWEfWgXK431O_4-12" value="Regression" style="ellipse;whiteSpace=wrap;html=1;aspect=fixed;fillColor=#FFCC99;strokeColor=#CC6600;fontSize=16;fontColor=#FF8000;" vertex="1" parent="1">
          <mxGeometry x="770" y="-20" width="100" height="100" as="geometry" />
        </mxCell>
        <mxCell id="P-y4f1cWEfWgXK431O_4-13" value="Classification" style="ellipse;whiteSpace=wrap;html=1;aspect=fixed;fillColor=#FF9999;strokeColor=#FF0000;fontSize=16;fontColor=#FF0000;" vertex="1" parent="1">
          <mxGeometry x="750" y="260" width="100" height="100" as="geometry" />
        </mxCell>
        <mxCell id="P-y4f1cWEfWgXK431O_4-14" value="" style="ellipse;whiteSpace=wrap;html=1;aspect=fixed;fillColor=#ffe6cc;strokeColor=#d79b00;" vertex="1" parent="1">
          <mxGeometry x="730" y="-10" width="30" height="30" as="geometry" />
        </mxCell>
        <mxCell id="P-y4f1cWEfWgXK431O_4-15" value="" style="ellipse;whiteSpace=wrap;html=1;aspect=fixed;fillColor=#ffe6cc;strokeColor=#d79b00;" vertex="1" parent="1">
          <mxGeometry x="880" y="40" width="30" height="30" as="geometry" />
        </mxCell>
        <mxCell id="P-y4f1cWEfWgXK431O_4-16" value="" style="ellipse;whiteSpace=wrap;html=1;aspect=fixed;fillColor=#ffe6cc;strokeColor=#d79b00;" vertex="1" parent="1">
          <mxGeometry x="880" y="-10" width="30" height="30" as="geometry" />
        </mxCell>
        <mxCell id="P-y4f1cWEfWgXK431O_4-17" value="" style="ellipse;whiteSpace=wrap;html=1;aspect=fixed;fillColor=#ffe6cc;strokeColor=#d79b00;" vertex="1" parent="1">
          <mxGeometry x="860" y="-50" width="30" height="30" as="geometry" />
        </mxCell>
        <mxCell id="P-y4f1cWEfWgXK431O_4-18" value="" style="ellipse;whiteSpace=wrap;html=1;aspect=fixed;fillColor=#ffe6cc;strokeColor=#d79b00;" vertex="1" parent="1">
          <mxGeometry x="810" y="-60" width="30" height="30" as="geometry" />
        </mxCell>
        <mxCell id="P-y4f1cWEfWgXK431O_4-19" value="" style="ellipse;whiteSpace=wrap;html=1;aspect=fixed;fillColor=#ffe6cc;strokeColor=#d79b00;" vertex="1" parent="1">
          <mxGeometry x="760" y="-50" width="30" height="30" as="geometry" />
        </mxCell>
        <mxCell id="P-y4f1cWEfWgXK431O_4-21" value="" style="ellipse;whiteSpace=wrap;html=1;aspect=fixed;fillColor=#f8cecc;strokeColor=#b85450;" vertex="1" parent="1">
          <mxGeometry x="710" y="330" width="30" height="30" as="geometry" />
        </mxCell>
        <mxCell id="P-y4f1cWEfWgXK431O_4-22" value="" style="ellipse;whiteSpace=wrap;html=1;aspect=fixed;fillColor=#f8cecc;strokeColor=#b85450;" vertex="1" parent="1">
          <mxGeometry x="740" y="370" width="30" height="30" as="geometry" />
        </mxCell>
        <mxCell id="P-y4f1cWEfWgXK431O_4-23" value="" style="ellipse;whiteSpace=wrap;html=1;aspect=fixed;fillColor=#f8cecc;strokeColor=#b85450;" vertex="1" parent="1">
          <mxGeometry x="860" y="270" width="30" height="30" as="geometry" />
        </mxCell>
        <mxCell id="P-y4f1cWEfWgXK431O_4-24" value="" style="ellipse;whiteSpace=wrap;html=1;aspect=fixed;fillColor=#f8cecc;strokeColor=#b85450;" vertex="1" parent="1">
          <mxGeometry x="790" y="380" width="30" height="30" as="geometry" />
        </mxCell>
        <mxCell id="P-y4f1cWEfWgXK431O_4-25" value="" style="ellipse;whiteSpace=wrap;html=1;aspect=fixed;fillColor=#f8cecc;strokeColor=#b85450;" vertex="1" parent="1">
          <mxGeometry x="840" y="360" width="30" height="30" as="geometry" />
        </mxCell>
        <mxCell id="P-y4f1cWEfWgXK431O_4-26" value="" style="ellipse;whiteSpace=wrap;html=1;aspect=fixed;fillColor=#f8cecc;strokeColor=#b85450;" vertex="1" parent="1">
          <mxGeometry x="870" y="320" width="30" height="30" as="geometry" />
        </mxCell>
        <mxCell id="P-y4f1cWEfWgXK431O_4-28" value="" style="shape=callout;whiteSpace=wrap;html=1;perimeter=calloutPerimeter;fillColor=#f8cecc;strokeColor=#b85450;" vertex="1" parent="1">
          <mxGeometry x="760" y="180" width="120" height="80" as="geometry" />
        </mxCell>
        <mxCell id="P-y4f1cWEfWgXK431O_4-29" value="" style="shape=callout;whiteSpace=wrap;html=1;perimeter=calloutPerimeter;direction=west;fillColor=#ffe6cc;strokeColor=#d79b00;" vertex="1" parent="1">
          <mxGeometry x="760" y="80" width="120" height="80" as="geometry" />
        </mxCell>
        <mxCell id="P-y4f1cWEfWgXK431O_4-30" value="" style="shape=callout;whiteSpace=wrap;html=1;perimeter=calloutPerimeter;direction=west;" vertex="1" parent="1">
          <mxGeometry x="310" y="550" width="120" height="80" as="geometry" />
        </mxCell>
        <mxCell id="P-y4f1cWEfWgXK431O_4-31" value="" style="ellipse;whiteSpace=wrap;html=1;aspect=fixed;fillColor=#fff2cc;strokeColor=#d6b656;" vertex="1" parent="1">
          <mxGeometry x="-40" y="-20" width="100" height="100" as="geometry" />
        </mxCell>
        <mxCell id="P-y4f1cWEfWgXK431O_4-32" value="" style="ellipse;whiteSpace=wrap;html=1;aspect=fixed;fillColor=#CCFFCC;strokeColor=#00CC00;" vertex="1" parent="1">
          <mxGeometry x="-60" y="260" width="100" height="100" as="geometry" />
        </mxCell>
        <mxCell id="P-y4f1cWEfWgXK431O_4-33" value="" style="ellipse;whiteSpace=wrap;html=1;aspect=fixed;fillColor=#fff2cc;strokeColor=#d6b656;" vertex="1" parent="1">
          <mxGeometry x="-80" y="-10" width="30" height="30" as="geometry" />
        </mxCell>
        <mxCell id="P-y4f1cWEfWgXK431O_4-34" value="" style="ellipse;whiteSpace=wrap;html=1;aspect=fixed;fillColor=#fff2cc;strokeColor=#d6b656;" vertex="1" parent="1">
          <mxGeometry x="70" y="40" width="30" height="30" as="geometry" />
        </mxCell>
        <mxCell id="P-y4f1cWEfWgXK431O_4-35" value="" style="ellipse;whiteSpace=wrap;html=1;aspect=fixed;fillColor=#fff2cc;strokeColor=#d6b656;" vertex="1" parent="1">
          <mxGeometry x="70" y="-10" width="30" height="30" as="geometry" />
        </mxCell>
        <mxCell id="P-y4f1cWEfWgXK431O_4-36" value="" style="ellipse;whiteSpace=wrap;html=1;aspect=fixed;fillColor=#fff2cc;strokeColor=#d6b656;" vertex="1" parent="1">
          <mxGeometry x="50" y="-50" width="30" height="30" as="geometry" />
        </mxCell>
        <mxCell id="P-y4f1cWEfWgXK431O_4-37" value="" style="ellipse;whiteSpace=wrap;html=1;aspect=fixed;fillColor=#fff2cc;strokeColor=#d6b656;" vertex="1" parent="1">
          <mxGeometry y="-60" width="30" height="30" as="geometry" />
        </mxCell>
        <mxCell id="P-y4f1cWEfWgXK431O_4-38" value="" style="ellipse;whiteSpace=wrap;html=1;aspect=fixed;fillColor=#fff2cc;strokeColor=#d6b656;" vertex="1" parent="1">
          <mxGeometry x="-50" y="-50" width="30" height="30" as="geometry" />
        </mxCell>
        <mxCell id="P-y4f1cWEfWgXK431O_4-41" value="" style="ellipse;whiteSpace=wrap;html=1;aspect=fixed;strokeColor=#82b366;fillColor=#CCFFCC;" vertex="1" parent="1">
          <mxGeometry x="65" y="336" width="64" height="64" as="geometry" />
        </mxCell>
        <mxCell id="P-y4f1cWEfWgXK431O_4-45" value="" style="shape=callout;whiteSpace=wrap;html=1;perimeter=calloutPerimeter;strokeColor=#00CC00;fillColor=#CCFFCC;" vertex="1" parent="1">
          <mxGeometry x="-50" y="180" width="120" height="80" as="geometry" />
        </mxCell>
        <mxCell id="P-y4f1cWEfWgXK431O_4-46" value="" style="shape=callout;whiteSpace=wrap;html=1;perimeter=calloutPerimeter;direction=west;fillColor=#fff2cc;strokeColor=#d6b656;" vertex="1" parent="1">
          <mxGeometry x="-50" y="80" width="120" height="80" as="geometry" />
        </mxCell>
        <mxCell id="P-y4f1cWEfWgXK431O_4-47" value="" style="ellipse;whiteSpace=wrap;html=1;aspect=fixed;fillColor=#cdeb8b;strokeColor=#00FF00;" vertex="1" parent="1">
          <mxGeometry x="-60" y="391" width="64" height="64" as="geometry" />
        </mxCell>
        <mxCell id="P-y4f1cWEfWgXK431O_4-49" value="" style="ellipse;whiteSpace=wrap;html=1;aspect=fixed;fillColor=#d5e8d4;strokeColor=#82b366;gradientColor=#97d077;" vertex="1" parent="1">
          <mxGeometry x="137" y="334" width="30" height="30" as="geometry" />
        </mxCell>
        <mxCell id="P-y4f1cWEfWgXK431O_4-51" value="" style="ellipse;whiteSpace=wrap;html=1;aspect=fixed;fillColor=#d5e8d4;strokeColor=#82b366;gradientColor=#97d077;" vertex="1" parent="1">
          <mxGeometry x="145" y="374" width="30" height="30" as="geometry" />
        </mxCell>
        <mxCell id="P-y4f1cWEfWgXK431O_4-52" value="" style="ellipse;whiteSpace=wrap;html=1;aspect=fixed;fillColor=#d5e8d4;strokeColor=#82b366;gradientColor=#97d077;" vertex="1" parent="1">
          <mxGeometry x="117" y="404" width="30" height="30" as="geometry" />
        </mxCell>
      </root>
    </mxGraphModel>
  </diagram>
</mxfile>
